<svg width="120" height="24" viewBox="0 0 120 24" fill="none" xmlns="http://www.w3.org/2000/svg">
<path d="M0.46875 1.82812C1.40625 1.90625 2.22656 1.95312 2.92969 1.96875C3.64844 1.98438 4.25781 1.99219 4.75781 1.99219C5.33594 1.99219 5.83594 1.97656 6.25781 1.94531C6.69531 1.89844 7.26562 1.83594 7.96875 1.75781C8.5625 1.67969 9.32812 1.57812 10.2656 1.45312C11.2031 1.3125 12.3438 1.13281 13.6875 0.914062C13.5156 1.17969 13.3672 1.46094 13.2422 1.75781C13.1328 2.03906 13.0391 2.29688 12.9609 2.53125C12.8828 2.8125 12.8125 3.08594 12.75 3.35156C12.7031 3.64844 12.6484 4.01562 12.5859 4.45312C12.5234 4.82812 12.4453 5.30469 12.3516 5.88281C12.2734 6.44531 12.1719 7.11719 12.0469 7.89844C11.5781 6.67969 11.1016 5.74219 10.6172 5.08594C10.1484 4.42969 9.71094 3.94531 9.30469 3.63281C8.83594 3.27344 8.39062 3.07031 7.96875 3.02344C7.35938 3.02344 6.85938 3.14062 6.46875 3.375C6.07812 3.60938 5.75781 3.91406 5.50781 4.28906C5.27344 4.64844 5.09375 5.04688 4.96875 5.48438C4.84375 5.90625 4.75781 6.32031 4.71094 6.72656C4.66406 7.11719 4.63281 7.46875 4.61719 7.78125C4.60156 8.07812 4.58594 8.28125 4.57031 8.39062C5.11719 8.35938 5.57812 8.32031 5.95312 8.27344C6.32812 8.22656 6.625 8.17969 6.84375 8.13281C7.10938 8.07031 7.32031 8.00781 7.47656 7.94531C7.71094 7.82031 7.94531 7.67188 8.17969 7.5C8.38281 7.34375 8.59375 7.15625 8.8125 6.9375C9.04688 6.71875 9.25 6.45312 9.42188 6.14062C9.32812 6.70312 9.24219 7.17188 9.16406 7.54688C9.10156 7.92188 9.04688 8.21875 9 8.4375C8.9375 8.70312 8.89844 8.90625 8.88281 9.04688C8.85156 9.1875 8.8125 9.38281 8.76562 9.63281C8.71875 9.85156 8.66406 10.1328 8.60156 10.4766C8.53906 10.8203 8.46875 11.25 8.39062 11.7656C8.20312 11.4375 8.00781 11.1719 7.80469 10.9688C7.60156 10.75 7.41406 10.5781 7.24219 10.4531C7.03906 10.3125 6.84375 10.2031 6.65625 10.125C6.45312 10.0625 6.23438 10 6 9.9375C5.79688 9.89062 5.55469 9.84375 5.27344 9.79688C5.00781 9.73438 4.71875 9.67969 4.40625 9.63281C4.4375 10.4766 4.48438 11.2031 4.54688 11.8125C4.60938 12.4062 4.66406 12.9062 4.71094 13.3125C4.77344 13.7812 4.83594 14.1719 4.89844 14.4844C4.97656 14.7969 5.10156 15.1328 5.27344 15.4922C5.41406 15.8047 5.60938 16.1641 5.85938 16.5703C6.125 16.9609 6.46094 17.3828 6.86719 17.8359C6.55469 17.7578 6.22656 17.7031 5.88281 17.6719C5.53906 17.6406 5.23438 17.6172 4.96875 17.6016C4.64062 17.5859 4.32812 17.5859 4.03125 17.6016C3.71875 17.6172 3.375 17.6484 3 17.6953C2.6875 17.7266 2.32812 17.7734 1.92188 17.8359C1.51562 17.8984 1.08594 17.9688 0.632812 18.0469C0.898438 17.7812 1.11719 17.5156 1.28906 17.25C1.46094 16.9844 1.58594 16.75 1.66406 16.5469C1.75781 16.3125 1.82031 16.0859 1.85156 15.8672C1.86719 15.6797 1.875 15.2734 1.875 14.6484C1.875 14.0078 1.86719 13.2656 1.85156 12.4219C1.83594 11.5625 1.8125 10.6562 1.78125 9.70312C1.75 8.75 1.71875 7.85938 1.6875 7.03125C1.65625 6.1875 1.61719 5.46875 1.57031 4.875C1.53906 4.28125 1.5 3.92188 1.45312 3.79688C1.39062 3.64062 1.32031 3.46094 1.24219 3.25781C1.11719 2.92969 0.859375 2.45312 0.46875 1.82812Z" fill="#F8F7F7"/>
<path d="M13.3856 18.6562C13.5419 18.4219 13.6669 18.2031 13.7606 18C13.8544 17.7969 13.9325 17.625 13.995 17.4844C14.0575 17.3125 14.1044 17.1562 14.1356 17.0156C14.1512 16.9219 14.1591 16.6484 14.1591 16.1953C14.1591 15.7422 14.1434 15.1719 14.1122 14.4844C14.0966 13.7969 14.0731 13.0234 14.0419 12.1641C14.0262 11.3047 13.995 10.4297 13.9481 9.53906C13.9169 8.64844 13.8778 7.78125 13.8309 6.9375C13.7997 6.09375 13.7684 5.33594 13.7372 4.66406C13.7059 3.97656 13.6747 3.41406 13.6434 2.97656C13.6122 2.53906 13.5887 2.28906 13.5731 2.22656C13.5419 2.13281 13.4872 2.03906 13.4091 1.94531C13.2528 1.75781 12.9872 1.57812 12.6122 1.40625C13.4091 1.20312 14.0184 1.03906 14.4403 0.914062C14.6903 0.851562 14.9091 0.789062 15.0966 0.726562C15.2684 0.664062 15.4403 0.601562 15.6122 0.539062C15.7528 0.476562 15.9091 0.40625 16.0809 0.328125C16.2528 0.234375 16.4091 0.132812 16.5497 0.0234375C16.4716 0.476562 16.4091 0.914062 16.3622 1.33594C16.3153 1.75781 16.2762 2.14844 16.245 2.50781C16.2137 2.91406 16.1981 3.30469 16.1981 3.67969C16.12 4.44531 16.0731 5.28125 16.0575 6.1875C16.0575 7.07812 16.0653 7.98438 16.0809 8.90625C16.0966 9.82812 16.1278 10.7266 16.1747 11.6016C16.2216 12.4766 16.2684 13.2734 16.3153 13.9922C16.3778 14.6953 16.4325 15.2969 16.4794 15.7969C16.5419 16.2812 16.5887 16.5938 16.62 16.7344C16.6825 16.9688 16.745 17.1953 16.8075 17.4141C16.87 17.6016 16.9403 17.7969 17.0184 18C17.0966 18.2188 17.1903 18.3906 17.2997 18.5156H15.0262C14.8231 18.5156 14.6278 18.5234 14.4403 18.5391C14.2684 18.5547 14.0887 18.5703 13.9012 18.5859C13.7137 18.6016 13.5419 18.625 13.3856 18.6562Z" fill="#F8F7F7"/>
<path d="M17.0681 6.02344C17.3806 6.07031 17.6619 6.10938 17.9119 6.14062C18.1462 6.15625 18.3572 6.17188 18.5447 6.1875C18.7478 6.20312 18.9431 6.21094 19.1306 6.21094C19.3025 6.21094 19.5212 6.20312 19.7869 6.1875C20.0056 6.17188 20.2869 6.15625 20.6306 6.14062C20.99 6.10938 21.4119 6.07031 21.8962 6.02344C21.865 6.08594 21.8025 6.28125 21.7087 6.60938C21.615 6.92188 21.5212 7.3125 21.4275 7.78125C21.3337 8.23438 21.2478 8.74219 21.1697 9.30469C21.1072 9.85156 21.0759 10.3984 21.0759 10.9453C21.0916 11.4766 21.1619 11.9844 21.2869 12.4688C21.4119 12.9375 21.615 13.3203 21.8962 13.6172C22.49 14.2266 23.0134 14.5938 23.4666 14.7188C23.9353 14.8438 24.3416 14.8281 24.6853 14.6719C25.0291 14.5156 25.3103 14.2812 25.5291 13.9688C25.7478 13.6562 25.9041 13.3672 25.9978 13.1016C26.2322 12.3828 26.3728 11.625 26.4197 10.8281C26.4509 10.1406 26.3962 9.375 26.2556 8.53125C26.115 7.6875 25.7791 6.82812 25.2478 5.95312C25.6541 5.98438 26.0056 6.00781 26.3025 6.02344C26.5994 6.03906 26.8572 6.05469 27.0759 6.07031C27.3259 6.08594 27.5447 6.10156 27.7322 6.11719C27.9041 6.13281 28.1072 6.13281 28.3416 6.11719C28.5447 6.11719 28.7869 6.10938 29.0681 6.09375C29.365 6.0625 29.6931 6.03125 30.0525 6C30.115 7.53125 30.1697 8.89844 30.2166 10.1016C30.2634 11.2891 30.2947 12.3438 30.3103 13.2656C30.3416 14.1719 30.3572 14.9609 30.3572 15.6328C30.3572 16.2891 30.3572 16.8438 30.3572 17.2969C30.3416 18.375 30.2947 19.0859 30.2166 19.4297C30.0916 19.9141 29.865 20.3984 29.5369 20.8828C29.2244 21.3672 28.8259 21.7969 28.3416 22.1719C27.8572 22.5625 27.2947 22.8594 26.6541 23.0625C26.0291 23.2812 25.3416 23.3594 24.5916 23.2969C23.8572 23.2344 23.2712 23.1328 22.8337 22.9922C22.4119 22.8672 22.0759 22.7188 21.8259 22.5469C21.5916 22.375 21.4197 22.1953 21.3103 22.0078C21.2166 21.8203 21.1462 21.625 21.0994 21.4219C21.0525 21.2344 21.0056 21.0547 20.9587 20.8828C20.9119 20.7109 20.8181 20.5625 20.6775 20.4375C20.5056 20.2969 20.3259 20.1562 20.1384 20.0156C19.9666 19.8906 19.7791 19.7656 19.5759 19.6406C19.3884 19.5156 19.2009 19.4141 19.0134 19.3359L24.0056 19.0547C23.865 19.2422 23.7634 19.4141 23.7009 19.5703C23.6384 19.7266 23.5994 19.8594 23.5837 19.9688C23.5681 20.1094 23.5759 20.2266 23.6072 20.3203C23.6697 20.5078 23.7791 20.7109 23.9353 20.9297C24.1072 21.1641 24.3259 21.3438 24.5916 21.4688C24.8572 21.6094 25.1697 21.6562 25.5291 21.6094C25.9041 21.5625 26.3259 21.3672 26.7947 21.0234C27.1853 20.7266 27.5134 20.25 27.7791 19.5938C27.9978 19.0312 28.1697 18.2422 28.2947 17.2266C28.4197 16.2109 28.3962 14.875 28.2244 13.2188C27.9431 14.1875 27.5603 14.9297 27.0759 15.4453C26.5916 15.9609 26.1072 16.3359 25.6228 16.5703C25.0603 16.8516 24.4744 17 23.865 17.0156C23.0525 16.9844 22.3572 16.8828 21.7791 16.7109C21.2009 16.5234 20.7244 16.2734 20.3494 15.9609C19.9744 15.6484 19.6775 15.2812 19.4587 14.8594C19.2556 14.4219 19.1072 13.9375 19.0134 13.4062C18.9197 12.875 18.8728 12.3438 18.8728 11.8125C18.8728 11.2656 18.8728 10.7578 18.8728 10.2891C18.8884 9.82031 18.8962 9.39844 18.8962 9.02344C18.8962 8.63281 18.8572 8.32031 18.7791 8.08594C18.6853 7.85156 18.5603 7.61719 18.4041 7.38281C18.2791 7.17969 18.1072 6.96094 17.8884 6.72656C17.6541 6.47656 17.3806 6.24219 17.0681 6.02344Z" fill="#F8F7F7"/>
<path d="M32.0475 7.52344L36.36 7.57031C36.11 8.52344 35.9225 9.33594 35.7975 10.0078C35.6881 10.6797 35.6178 11.2422 35.5866 11.6953C35.5241 12.2109 35.5084 12.6484 35.5397 13.0078C35.5866 13.3359 35.6647 13.6875 35.7741 14.0625C35.8678 14.375 36.0084 14.7344 36.1959 15.1406C36.3834 15.5469 36.6334 15.9531 36.9459 16.3594C36.7584 16.2969 36.5553 16.25 36.3366 16.2188C36.1178 16.1875 35.9147 16.1641 35.7272 16.1484C35.5084 16.1328 35.2897 16.1328 35.0709 16.1484C34.8522 16.1641 34.61 16.1875 34.3444 16.2188C34.1256 16.25 33.86 16.2891 33.5475 16.3359C33.235 16.3828 32.9069 16.4453 32.5631 16.5234C32.7975 15.8203 32.9772 15.2109 33.1022 14.6953C33.2428 14.1797 33.3444 13.75 33.4069 13.4062C33.4694 13 33.5084 12.6719 33.5241 12.4219C33.5241 12.1094 33.5241 11.7578 33.5241 11.3672C33.5241 10.9609 33.5241 10.5703 33.5241 10.1953C33.5241 9.82031 33.5163 9.49219 33.5006 9.21094C33.485 8.91406 33.4538 8.72656 33.4069 8.64844L33.1725 8.41406C33.0788 8.33594 32.9381 8.22656 32.7506 8.08594C32.5788 7.92969 32.3444 7.74219 32.0475 7.52344ZM33.7116 3.91406C34.0397 3.74219 34.3678 3.69531 34.6959 3.77344C35.0397 3.85156 35.3053 4 35.4928 4.21875C35.6803 4.4375 35.7428 4.69531 35.6803 4.99219C35.6334 5.28906 35.3834 5.57812 34.9303 5.85938C34.4772 6.125 34.0788 6.21875 33.735 6.14062C33.3913 6.0625 33.1491 5.89844 33.0084 5.64844C32.8678 5.39844 32.8444 5.10938 32.9381 4.78125C33.0319 4.4375 33.2897 4.14844 33.7116 3.91406Z" fill="#F8F7F7"/>
<path d="M38.6362 15.4219C38.7456 14.9062 38.8237 14.4531 38.8706 14.0625C38.9331 13.6562 38.98 13.3203 39.0112 13.0547C39.0425 12.7422 39.0581 12.4766 39.0581 12.2578C39.0425 11.9922 39.0269 11.6797 39.0112 11.3203C39.0112 10.9453 38.9956 10.5781 38.9644 10.2188C38.9487 9.84375 38.9253 9.51562 38.8941 9.23438C38.8628 8.9375 38.8237 8.72656 38.7769 8.60156C38.7144 8.47656 38.6284 8.34375 38.5191 8.20312C38.3003 7.9375 37.98 7.67969 37.5581 7.42969C37.9175 7.35156 38.2222 7.28906 38.4722 7.24219C38.7378 7.17969 38.9566 7.125 39.1284 7.07812C39.3159 7.01562 39.48 6.96094 39.6206 6.91406C39.7456 6.86719 39.8941 6.82031 40.0659 6.77344C40.2066 6.74219 40.3784 6.70312 40.5816 6.65625C40.7847 6.60938 41.0191 6.55469 41.2847 6.49219L41.2144 8.625C41.7144 8.03125 42.2222 7.58594 42.7378 7.28906C43.2534 6.99219 43.7378 6.78125 44.1909 6.65625C44.7066 6.5 45.2144 6.42188 45.7144 6.42188C46.3394 6.45312 46.9175 6.55469 47.4487 6.72656C47.9956 6.89844 48.4644 7.10156 48.855 7.33594C49.2612 7.55469 49.5894 7.78906 49.8394 8.03906C50.0894 8.28906 50.2378 8.50781 50.2847 8.69531C50.4722 9.30469 50.5191 9.86719 50.4253 10.3828C50.3316 10.8828 50.2066 11.375 50.0503 11.8594C49.9097 12.3281 49.7847 12.7969 49.6753 13.2656C49.5816 13.7344 49.6206 14.2422 49.7925 14.7891C49.855 14.9297 49.9175 15.0703 49.98 15.2109C50.0425 15.3359 50.1206 15.4609 50.2144 15.5859C50.3081 15.7109 50.4175 15.8125 50.5425 15.8906C50.3706 15.875 50.1987 15.8672 50.0269 15.8672C49.855 15.8516 49.6987 15.8359 49.5581 15.8203C49.3862 15.8047 49.23 15.7891 49.0894 15.7734C48.9331 15.7578 48.7222 15.75 48.4566 15.75C48.0034 15.75 47.3003 15.7734 46.3472 15.8203C46.4878 15.4922 46.5972 15.2188 46.6753 15C46.7691 14.7656 46.8472 14.5781 46.9097 14.4375C46.9722 14.2656 47.0191 14.1328 47.0503 14.0391C47.2378 13.5859 47.3472 13.0703 47.3784 12.4922C47.4253 11.9141 47.3862 11.3281 47.2612 10.7344C47.2144 10.5312 47.1362 10.2891 47.0269 10.0078C46.9175 9.72656 46.7691 9.45312 46.5816 9.1875C46.4097 8.92188 46.1987 8.69531 45.9487 8.50781C45.7144 8.32031 45.4409 8.21094 45.1284 8.17969C44.8159 8.14844 44.4644 8.22656 44.0737 8.41406C43.6987 8.60156 43.2925 8.94531 42.855 9.44531C42.5269 9.86719 42.2691 10.3828 42.0816 10.9922C41.9097 11.5078 41.7925 12.1562 41.73 12.9375C41.6675 13.7031 41.7612 14.6016 42.0112 15.6328C41.7925 15.6016 41.5894 15.5859 41.4019 15.5859C41.2144 15.5703 41.0581 15.5547 40.9331 15.5391C40.7769 15.5234 40.6362 15.5078 40.5112 15.4922C40.3706 15.4922 40.2144 15.4844 40.0425 15.4688C39.8862 15.4688 39.6909 15.4688 39.4566 15.4688C39.2222 15.4531 38.9487 15.4375 38.6362 15.4219Z" fill="#F8F7F7"/>
<path d="M63.1547 8.0625C63.1078 7.75 63.0687 7.49219 63.0375 7.28906C63.0062 7.07031 62.975 6.89844 62.9437 6.77344C62.9125 6.61719 62.8891 6.5 62.8734 6.42188C62.8422 6.34375 62.8031 6.25781 62.7562 6.16406C62.725 6.08594 62.6703 5.99219 62.5922 5.88281C62.5297 5.77344 62.4516 5.64844 62.3578 5.50781C62.5609 5.57031 62.7641 5.60938 62.9672 5.625C63.1859 5.64062 63.3891 5.65625 63.5766 5.67188C63.7797 5.6875 63.9906 5.6875 64.2094 5.67188C64.4281 5.67188 64.6781 5.66406 64.9594 5.64844C65.2094 5.63281 65.5062 5.625 65.85 5.625C66.2094 5.60938 66.6156 5.58594 67.0687 5.55469C66.8031 5.61719 66.5766 5.72656 66.3891 5.88281C66.2172 6.02344 66.0687 6.17969 65.9437 6.35156C65.8031 6.53906 65.6859 6.74219 65.5922 6.96094C65.5141 7.16406 65.4672 7.55469 65.4516 8.13281C65.4359 8.69531 65.4359 9.36719 65.4516 10.1484C65.4672 10.9141 65.4828 11.7422 65.4984 12.6328C65.5297 13.5234 65.5453 14.375 65.5453 15.1875C65.5609 16 65.5609 16.7422 65.5453 17.4141C65.5297 18.0703 65.4906 18.5547 65.4281 18.8672C65.2094 19.8516 64.8031 20.6484 64.2094 21.2578C63.6156 21.8828 62.8344 22.2188 61.8656 22.2656C60.6937 22.3125 59.7641 22.2031 59.0766 21.9375C58.4047 21.6719 57.8812 21.3438 57.5062 20.9531C57.1312 20.5781 56.85 20.1953 56.6625 19.8047C56.475 19.4141 56.2797 19.1172 56.0766 18.9141C55.8891 18.7422 55.7016 18.5781 55.5141 18.4219C55.3422 18.2969 55.1625 18.1719 54.975 18.0469C54.8031 17.9219 54.6312 17.8438 54.4594 17.8125C54.9125 17.8281 55.3187 17.8359 55.6781 17.8359C56.0375 17.8359 56.3422 17.8359 56.5922 17.8359C56.8734 17.8359 57.1234 17.8281 57.3422 17.8125H60.225C59.9125 17.9062 59.6781 18.0078 59.5219 18.1172C59.3656 18.2422 59.2562 18.3672 59.1937 18.4922C59.1312 18.6328 59.1 18.7734 59.1 18.9141C59.1625 19.2891 59.3656 19.5625 59.7094 19.7344C60.0531 19.9062 60.5219 20.0078 61.1156 20.0391C61.6937 20.0703 62.0922 20.0547 62.3109 19.9922C62.5297 19.9453 62.7016 19.8516 62.8266 19.7109C63.0766 19.3359 63.2875 18.8516 63.4594 18.2578C63.5844 17.7578 63.6703 17.1094 63.7172 16.3125C63.7797 15.5 63.7094 14.5078 63.5062 13.3359C63.0062 14.0234 62.4281 14.5391 61.7719 14.8828C61.1156 15.2266 60.4906 15.4766 59.8969 15.6328C59.1937 15.8047 58.4828 15.8906 57.7641 15.8906C55.8734 15.8125 54.4594 15.375 53.5219 14.5781C52.5844 13.7812 52.1547 12.7109 52.2328 11.3672C52.2797 10.6953 52.4828 10.0234 52.8422 9.35156C53.2172 8.67969 53.7016 8.07812 54.2953 7.54688C54.9047 7.01562 55.6 6.59375 56.3812 6.28125C57.1625 5.96875 57.975 5.83594 58.8187 5.88281C59.4594 5.94531 60.0609 6.0625 60.6234 6.23438C61.1078 6.39062 61.5844 6.60938 62.0531 6.89062C62.5375 7.17188 62.9047 7.5625 63.1547 8.0625ZM55.7016 10.4062C55.6078 11.0156 55.6469 11.5859 55.8187 12.1172C56.0062 12.6484 56.2641 13.1094 56.5922 13.5C56.9203 13.875 57.2875 14.1719 57.6937 14.3906C58.1 14.5938 58.4828 14.6875 58.8422 14.6719C59.5922 14.6562 60.2406 14.3203 60.7875 13.6641C61.3344 12.9922 61.6625 11.9922 61.7719 10.6641C61.8187 10.0078 61.7328 9.44531 61.5141 8.97656C61.3109 8.49219 61.0531 8.10156 60.7406 7.80469C60.4281 7.50781 60.1 7.29688 59.7562 7.17188C59.4125 7.04688 59.1391 6.99219 58.9359 7.00781C58.6547 7.03906 58.3422 7.125 57.9984 7.26562C57.6703 7.39062 57.35 7.58594 57.0375 7.85156C56.725 8.10156 56.4437 8.4375 56.1937 8.85938C55.9594 9.28125 55.7953 9.79688 55.7016 10.4062Z" fill="#F8F7F7"/>
<path d="M72.2541 1.35938C72.8009 1.42188 73.2619 1.46875 73.6369 1.5C74.0119 1.51562 74.3087 1.53125 74.5275 1.54688C74.7931 1.5625 75.0041 1.57031 75.1603 1.57031C75.4259 1.57031 75.7306 1.5625 76.0744 1.54688C76.3712 1.53125 76.715 1.50781 77.1056 1.47656C77.5119 1.42969 77.9494 1.35938 78.4181 1.26562C78.1994 1.5 78.0197 1.72656 77.8791 1.94531C77.7384 2.14844 77.6291 2.33594 77.5509 2.50781C77.4572 2.69531 77.3791 2.86719 77.3166 3.02344C77.2541 3.22656 77.1837 3.53906 77.1056 3.96094C77.0275 4.32031 76.9416 4.82812 76.8478 5.48438C76.7697 6.14062 76.6681 7 76.5431 8.0625C77.0744 8.07812 77.5353 8.08594 77.9259 8.08594C78.3166 8.07031 78.6447 8.0625 78.9103 8.0625H79.6837C79.9025 8.04688 80.1525 8.03125 80.4337 8.01562C80.9025 8 81.6134 7.95312 82.5666 7.875C82.6447 7.15625 82.6837 6.53906 82.6837 6.02344C82.6994 5.49219 82.6916 5.04688 82.6603 4.6875C82.6291 4.28125 82.5822 3.9375 82.5197 3.65625C82.4728 3.5 82.4025 3.3125 82.3087 3.09375C82.2306 2.90625 82.1212 2.67969 81.9806 2.41406C81.8556 2.13281 81.6837 1.79688 81.465 1.40625C81.8712 1.46875 82.2306 1.51562 82.5431 1.54688C82.8712 1.5625 83.1447 1.57812 83.3634 1.59375C83.6134 1.60938 83.8244 1.61719 83.9962 1.61719C84.1681 1.61719 84.3947 1.60938 84.6759 1.59375C84.9103 1.57812 85.1994 1.57031 85.5431 1.57031C85.8869 1.55469 86.3087 1.53125 86.8087 1.5C86.6837 1.71875 86.5744 1.94531 86.4806 2.17969C86.3869 2.41406 86.3087 2.625 86.2462 2.8125C86.1837 3.03125 86.1212 3.25 86.0587 3.46875C85.9806 3.79688 85.9103 4.27344 85.8478 4.89844C85.8009 5.52344 85.7541 6.21875 85.7072 6.98438C85.6759 7.75 85.6447 8.54688 85.6134 9.375C85.5978 10.2031 85.5822 10.9844 85.5666 11.7188C85.5666 12.4531 85.5744 13.1094 85.59 13.6875C85.6056 14.25 85.6369 14.6484 85.6837 14.8828C85.7306 15.1641 85.8087 15.4531 85.9181 15.75C86.0119 16.0156 86.1369 16.3047 86.2931 16.6172C86.4494 16.9141 86.6525 17.1953 86.9025 17.4609L81.2541 17.8828C81.4884 17.6641 81.6759 17.4531 81.8166 17.25C81.9572 17.0312 82.0666 16.8438 82.1447 16.6875C82.2228 16.5156 82.2775 16.3516 82.3087 16.1953C82.3244 16.0078 82.3478 15.6797 82.3791 15.2109C82.4103 14.8203 82.4416 14.2656 82.4728 13.5469C82.5041 12.8281 82.5353 11.875 82.5666 10.6875C82.3478 10.6875 82.0822 10.6953 81.7697 10.7109C81.4728 10.7109 81.1916 10.7188 80.9259 10.7344C80.6134 10.75 80.2853 10.7578 79.9416 10.7578C79.5978 10.7734 79.2384 10.7891 78.8634 10.8047C78.5509 10.8359 78.1994 10.8672 77.8087 10.8984C77.4337 10.9141 77.0587 10.9375 76.6837 10.9688C76.6525 11.625 76.6525 12.2031 76.6837 12.7031C76.715 13.1875 76.7619 13.6016 76.8244 13.9453C76.8869 14.3516 76.965 14.7031 77.0587 15C77.1525 15.2812 77.2541 15.5625 77.3634 15.8438C77.4572 16.0938 77.5666 16.3594 77.6916 16.6406C77.8322 16.9219 77.9728 17.1719 78.1134 17.3906C77.8166 17.3594 77.5431 17.3359 77.2931 17.3203C77.0431 17.2891 76.8244 17.2578 76.6369 17.2266C76.4181 17.2109 76.2072 17.1953 76.0041 17.1797C75.8009 17.1797 75.5587 17.1719 75.2775 17.1562C75.0275 17.1406 74.715 17.1328 74.34 17.1328C73.965 17.1172 73.5275 17.1094 73.0275 17.1094C73.3244 16.8125 73.5587 16.5234 73.7306 16.2422C73.9181 15.9453 74.0509 15.6797 74.1291 15.4453C74.2228 15.1641 74.2853 14.9062 74.3166 14.6719C74.3322 14.4688 74.34 14.0859 74.34 13.5234C74.3556 12.9609 74.3556 12.3203 74.34 11.6016C74.34 10.8672 74.3322 10.1016 74.3166 9.30469C74.3009 8.49219 74.2775 7.73438 74.2462 7.03125C74.2306 6.32812 74.2072 5.72656 74.1759 5.22656C74.1603 4.71094 74.1447 4.39062 74.1291 4.26562C74.0509 3.98438 73.9337 3.67969 73.7775 3.35156C73.6369 3.08594 73.4494 2.78125 73.215 2.4375C72.9806 2.07812 72.6603 1.71875 72.2541 1.35938Z" fill="#F8F7F7"/>
<path d="M89.3662 8.50781C89.4444 8.41406 89.4912 8.24219 89.5069 7.99219C89.5381 7.72656 89.6006 7.42969 89.6944 7.10156C89.8037 6.77344 89.9834 6.42969 90.2334 6.07031C90.4834 5.71094 90.8897 5.375 91.4522 5.0625C91.9991 4.75 92.5303 4.5625 93.0459 4.5C93.5616 4.4375 94.0537 4.46094 94.5225 4.57031C94.9912 4.67969 95.4287 4.85156 95.835 5.08594C96.2569 5.32031 96.6397 5.57812 96.9834 5.85938C97.2178 6.04688 97.4053 6.32031 97.5459 6.67969C97.6866 7.02344 97.7959 7.41406 97.8741 7.85156C97.9522 8.28906 98.0069 8.75 98.0381 9.23438C98.085 9.70312 98.1162 10.1641 98.1319 10.6172C98.1475 11.0547 98.1553 11.4609 98.1553 11.8359C98.1709 12.1953 98.2022 12.4922 98.2491 12.7266C98.3116 13.0703 98.4209 13.3672 98.5772 13.6172C98.7334 13.8516 98.9053 14.0547 99.0928 14.2266C99.2803 14.3828 99.4678 14.5078 99.6553 14.6016C99.8428 14.6953 100.007 14.7656 100.147 14.8125C100.241 14.8594 100.327 14.8906 100.405 14.9062C100.562 14.9688 100.671 14.9688 100.733 14.9062C100.64 15.125 100.554 15.3125 100.476 15.4688C100.397 15.625 100.335 15.7578 100.288 15.8672C100.226 15.9922 100.171 16.0938 100.124 16.1719C100.077 16.2656 100.022 16.3516 99.96 16.4297C99.9131 16.5078 99.8506 16.5938 99.7725 16.6875C99.6944 16.7812 99.6162 16.8828 99.5381 16.9922C99.335 16.9141 99.1397 16.8203 98.9522 16.7109C98.7803 16.6016 98.6241 16.5 98.4834 16.4062C98.3116 16.2969 98.1553 16.1875 98.0147 16.0781C97.8741 15.9688 97.7412 15.8438 97.6162 15.7031C97.5069 15.5781 97.3897 15.4453 97.2647 15.3047C97.1553 15.1641 97.0616 15.0078 96.9834 14.8359C96.8897 15.0391 96.6631 15.3281 96.3037 15.7031C95.96 16.0781 95.5069 16.4219 94.9444 16.7344C94.3819 17.0312 93.7256 17.2422 92.9756 17.3672C92.2412 17.4922 91.4287 17.4062 90.5381 17.1094C90.1475 16.9844 89.7803 16.8047 89.4366 16.5703C89.0928 16.3203 88.7959 16.0234 88.5459 15.6797C88.3116 15.3359 88.1397 14.9453 88.0303 14.5078C87.9366 14.0547 87.9444 13.5547 88.0537 13.0078C88.1631 12.4609 88.3584 12 88.6397 11.625C88.9209 11.25 89.2569 10.9453 89.6475 10.7109C90.0381 10.4766 90.4756 10.2969 90.96 10.1719C91.4444 10.0469 91.9444 9.96094 92.46 9.91406C92.8662 9.89844 93.2725 9.92188 93.6787 9.98438C94.0225 10.0469 94.3819 10.1641 94.7569 10.3359C95.1319 10.4922 95.4522 10.7344 95.7178 11.0625C95.7022 10.2344 95.6709 9.57812 95.6241 9.09375C95.5928 8.59375 95.5616 8.21094 95.5303 7.94531C95.4678 7.63281 95.4131 7.41406 95.3662 7.28906C95.2881 7.17969 95.2022 7.05469 95.1084 6.91406C95.0303 6.77344 94.9287 6.64844 94.8037 6.53906C94.6787 6.41406 94.5225 6.3125 94.335 6.23438C94.1475 6.15625 93.9287 6.125 93.6787 6.14062C93.4131 6.15625 93.2022 6.22656 93.0459 6.35156C92.8897 6.47656 92.7647 6.625 92.6709 6.79688C92.5928 6.95312 92.5459 7.125 92.5303 7.3125C92.5147 7.5 92.5225 7.66406 92.5537 7.80469C92.585 7.89844 92.6319 8 92.6944 8.10938C92.7569 8.20312 92.8428 8.30469 92.9522 8.41406C93.0616 8.52344 93.21 8.61719 93.3975 8.69531C93.0381 8.74219 92.7178 8.78125 92.4366 8.8125C92.1553 8.82812 91.9131 8.85156 91.71 8.88281C91.4756 8.91406 91.2725 8.9375 91.1006 8.95312C90.9287 8.96875 90.7256 9 90.4912 9.04688C90.2881 9.07812 90.0381 9.11719 89.7412 9.16406C89.4444 9.21094 89.1006 9.27344 88.71 9.35156C88.8037 9.24219 88.8897 9.14062 88.9678 9.04688C89.0459 8.9375 89.1162 8.84375 89.1787 8.76562C89.2412 8.67188 89.3037 8.58594 89.3662 8.50781ZM92.8819 11.2969C92.6006 11.3125 92.3194 11.3828 92.0381 11.5078C91.7569 11.6172 91.5069 11.7812 91.2881 12C91.0694 12.2031 90.8819 12.4453 90.7256 12.7266C90.585 12.9922 90.5147 13.2891 90.5147 13.6172C90.5147 13.9453 90.5928 14.2344 90.7491 14.4844C90.9209 14.7188 91.1397 14.9141 91.4053 15.0703C91.6866 15.2266 91.9834 15.3203 92.2959 15.3516C92.6241 15.3828 92.9444 15.3516 93.2569 15.2578C93.5537 15.1484 93.835 14.9766 94.1006 14.7422C94.3662 14.4922 94.5928 14.2266 94.7803 13.9453C94.9678 13.6484 95.1006 13.3594 95.1787 13.0781C95.2569 12.7812 95.2647 12.5391 95.2022 12.3516C95.0772 11.9453 94.7959 11.6641 94.3584 11.5078C93.9209 11.3359 93.4287 11.2656 92.8819 11.2969Z" fill="#F8F7F7"/>
<path d="M100.338 3.23438C100.807 3.28125 101.197 3.32031 101.51 3.35156C101.838 3.38281 102.103 3.40625 102.307 3.42188C102.541 3.4375 102.728 3.44531 102.869 3.44531C103.01 3.46094 103.197 3.46094 103.432 3.44531C103.635 3.42969 103.9 3.41406 104.228 3.39844C104.557 3.36719 104.971 3.32031 105.471 3.25781C105.361 3.41406 105.275 3.55469 105.213 3.67969C105.15 3.78906 105.096 3.89062 105.049 3.98438L104.908 4.26562C104.877 4.35938 104.846 4.45312 104.814 4.54688C104.783 4.625 104.752 4.71875 104.721 4.82812C104.705 4.9375 104.689 5.05469 104.674 5.17969H108.283L107.955 7.07812L104.65 6.89062C104.572 7.6875 104.518 8.30469 104.486 8.74219C104.455 9.17969 104.424 9.5 104.393 9.70312L104.346 10.125C104.299 10.7188 104.252 11.3672 104.205 12.0703C104.158 12.7578 104.143 13.3984 104.158 13.9922C104.174 14.5859 104.228 15.0859 104.322 15.4922C104.416 15.8828 104.58 16.0781 104.814 16.0781C105.049 16.0781 105.268 16.0156 105.471 15.8906C105.674 15.7656 105.846 15.6172 105.986 15.4453C106.143 15.2734 106.26 15.1016 106.338 14.9297C106.416 14.7422 106.455 14.6016 106.455 14.5078C106.455 14.4141 106.432 14.3047 106.385 14.1797C106.307 13.9453 106.166 13.6484 105.963 13.2891C106.416 13.3984 106.814 13.5078 107.158 13.6172C107.33 13.6797 107.486 13.7422 107.627 13.8047C107.783 13.8672 107.963 13.9375 108.166 14.0156C108.338 14.0938 108.557 14.1875 108.822 14.2969C109.088 14.4062 109.4 14.5391 109.76 14.6953C109.416 14.7578 109.166 14.8594 109.01 15C108.916 15.0625 108.846 15.1328 108.799 15.2109C108.689 15.3828 108.564 15.6172 108.424 15.9141C108.283 16.1953 108.072 16.4766 107.791 16.7578C107.51 17.0391 107.127 17.2891 106.643 17.5078C106.174 17.7266 105.541 17.8516 104.744 17.8828C103.916 17.9141 103.283 17.7734 102.846 17.4609C102.424 17.1484 102.111 16.7891 101.908 16.3828C101.721 15.9609 101.611 15.5469 101.58 15.1406C101.549 14.7344 101.525 14.4609 101.51 14.3203C101.494 14.1797 101.494 13.8281 101.51 13.2656C101.525 12.7031 101.549 12.0859 101.58 11.4141C101.611 10.7266 101.643 10.0703 101.674 9.44531C101.705 8.80469 101.721 8.33594 101.721 8.03906C101.721 7.88281 101.728 7.71875 101.744 7.54688C101.744 7.40625 101.744 7.25781 101.744 7.10156C101.76 6.92969 101.768 6.76562 101.768 6.60938L98.3691 6.58594L98.2284 5.25L101.65 5.34375C101.619 5.17188 101.58 5.01562 101.533 4.875C101.502 4.71875 101.471 4.59375 101.439 4.5C101.393 4.39062 101.346 4.29688 101.299 4.21875C101.236 4.14062 101.166 4.05469 101.088 3.96094C101.01 3.88281 100.908 3.78125 100.783 3.65625C100.658 3.53125 100.51 3.39062 100.338 3.23438Z" fill="#F8F7F7"/>
<path d="M119.255 4.61719C119.114 4.96094 118.989 5.27344 118.88 5.55469C118.786 5.83594 118.7 6.08594 118.622 6.30469C118.544 6.55469 118.473 6.77344 118.411 6.96094C118.348 7.17969 118.278 7.42969 118.2 7.71094C118.122 7.96094 118.02 8.27344 117.895 8.64844C117.786 9.00781 117.653 9.4375 117.497 9.9375C117.372 9.1875 117.145 8.59375 116.817 8.15625C116.489 7.70312 116.153 7.35156 115.809 7.10156C115.403 6.82031 114.966 6.61719 114.497 6.49219C113.653 6.35156 113.044 6.36719 112.669 6.53906C112.294 6.71094 112.044 6.92969 111.919 7.19531C111.856 7.30469 111.786 7.44531 111.708 7.61719C111.645 7.77344 111.591 7.9375 111.544 8.10938C111.512 8.28125 111.505 8.45312 111.52 8.625C111.536 8.79688 111.606 8.9375 111.731 9.04688C111.809 9.125 112.012 9.23438 112.341 9.375C112.669 9.5 113.059 9.64844 113.512 9.82031C113.981 9.97656 114.473 10.1484 114.989 10.3359C115.52 10.5234 116.02 10.7109 116.489 10.8984C116.958 11.0859 117.364 11.2734 117.708 11.4609C118.052 11.6484 118.278 11.8203 118.387 11.9766C118.481 12.1328 118.583 12.3438 118.692 12.6094C118.817 12.8594 118.903 13.1406 118.95 13.4531C119.012 13.75 119.028 14.0625 118.997 14.3906C118.981 14.7031 118.895 15.0156 118.739 15.3281C118.583 15.6406 118.333 15.9297 117.989 16.1953C117.661 16.4609 117.216 16.6797 116.653 16.8516C115.997 17.0547 115.364 17.1094 114.755 17.0156C114.145 16.9219 113.583 16.7812 113.067 16.5938C112.567 16.4062 112.13 16.2266 111.755 16.0547C111.38 15.8672 111.114 15.7891 110.958 15.8203C110.786 15.8516 110.591 15.9375 110.372 16.0781C110.153 16.2188 109.942 16.3672 109.739 16.5234C109.552 16.6641 109.387 16.7969 109.247 16.9219C109.106 17.0312 109.036 17.0703 109.036 17.0391C109.036 17.0078 109.059 16.9141 109.106 16.7578C109.169 16.6016 109.231 16.4141 109.294 16.1953C109.372 15.9609 109.442 15.7109 109.505 15.4453C109.583 15.1641 109.637 14.8984 109.669 14.6484C109.7 14.4453 109.739 14.1953 109.786 13.8984C109.817 13.6328 109.856 13.3125 109.903 12.9375C109.966 12.5469 110.036 12.0781 110.114 11.5312C110.192 11.9375 110.302 12.2891 110.442 12.5859C110.598 12.8828 110.747 13.1406 110.887 13.3594C111.059 13.6094 111.223 13.8203 111.38 13.9922C111.614 14.2109 111.887 14.4141 112.2 14.6016C112.528 14.7891 112.856 14.9531 113.184 15.0938C113.512 15.2188 113.825 15.2969 114.122 15.3281C114.419 15.3594 114.669 15.3281 114.872 15.2344C115.075 15.1406 115.247 14.9688 115.387 14.7188C115.544 14.4688 115.653 14.1953 115.716 13.8984C115.778 13.6016 115.802 13.3203 115.786 13.0547C115.77 12.7734 115.7 12.5469 115.575 12.375C115.481 12.2656 115.262 12.125 114.919 11.9531C114.591 11.7812 114.192 11.5938 113.723 11.3906C113.27 11.1875 112.786 10.9766 112.27 10.7578C111.77 10.5391 111.294 10.3203 110.841 10.1016C110.403 9.86719 110.036 9.64844 109.739 9.44531C109.458 9.22656 109.302 9.03125 109.27 8.85938C109.239 8.60938 109.216 8.33594 109.2 8.03906C109.184 7.72656 109.2 7.42188 109.247 7.125C109.309 6.8125 109.419 6.51562 109.575 6.23438C109.747 5.95312 109.997 5.71875 110.325 5.53125C110.544 5.40625 110.833 5.3125 111.192 5.25C111.552 5.1875 111.95 5.15625 112.387 5.15625C112.825 5.14062 113.278 5.15625 113.747 5.20312C114.216 5.23438 114.661 5.28125 115.083 5.34375C115.52 5.39062 115.911 5.45312 116.255 5.53125C116.614 5.60938 116.887 5.67969 117.075 5.74219C117.294 5.82031 117.528 5.82812 117.778 5.76562C117.997 5.71875 118.231 5.61719 118.481 5.46094C118.731 5.30469 118.989 5.02344 119.255 4.61719Z" fill="#F8F7F7"/>
</svg>
